<?xml version="1.0" standalone="no"?>
<!DOCTYPE svg PUBLIC "-//W3C//DTD SVG 20010904//EN"
 "http://www.w3.org/TR/2001/REC-SVG-20010904/DTD/svg10.dtd">
<svg version="1.0" xmlns="http://www.w3.org/2000/svg"
 width="16.000000pt" height="16.000000pt" viewBox="0 0 16.000000 16.000000"
 preserveAspectRatio="xMidYMid meet">
<metadata>
Created by potrace 1.11, written by Peter Selinger 2001-2013
</metadata>
<g transform="translate(0.000000,16.000000) scale(0.000768,-0.000768)"
fill="#000000" stroke="none">
<path d="M447 16969 c-78 -18 -152 -71 -183 -130 -42 -82 -31 -209 29 -338 94
-205 369 -494 772 -812 166 -131 451 -339 465 -339 4 0 10 -3 12 -8 5 -11 473
-318 576 -377 9 -6 78 -47 152 -91 74 -45 191 -114 260 -153 69 -39 132 -76
140 -81 8 -6 24 -14 35 -19 11 -5 44 -23 73 -40 30 -17 87 -49 128 -71 41 -22
109 -59 152 -82 580 -312 1468 -737 2032 -973 36 -15 85 -36 110 -47 25 -11
54 -24 65 -29 173 -75 873 -355 1075 -429 41 -15 176 -65 300 -110 448 -164
998 -350 1440 -485 227 -70 795 -234 832 -240 15 -3 39 -10 53 -15 14 -5 36
-12 48 -14 12 -3 128 -33 257 -66 230 -60 252 -66 288 -74 9 -2 78 -19 152
-36 149 -36 421 -98 460 -106 14 -2 54 -11 90 -19 57 -12 186 -39 245 -51 11
-2 117 -22 235 -44 118 -22 238 -44 265 -50 53 -11 166 -30 200 -35 11 -1 40
-5 65 -9 25 -4 56 -9 70 -11 14 -2 68 -11 120 -19 104 -16 140 -21 215 -31 28
-4 61 -9 75 -11 14 -2 48 -6 75 -9 101 -10 141 -23 158 -48 18 -27 14 -73 -9
-98 -24 -26 -582 -199 -726 -224 -15 -3 -38 -9 -52 -15 -15 -5 -26 -8 -26 -5
0 2 -15 -1 -32 -6 -51 -15 -378 -85 -528 -113 -74 -14 -148 -28 -165 -31 -16
-3 -68 -12 -115 -20 -47 -8 -96 -17 -110 -20 -13 -2 -42 -7 -65 -10 -22 -3
-65 -10 -95 -15 -30 -5 -73 -12 -95 -15 -22 -3 -67 -10 -100 -15 -33 -5 -78
-11 -100 -14 -22 -3 -87 -12 -145 -20 -58 -8 -145 -20 -195 -26 -49 -6 -101
-13 -115 -15 -14 -2 -54 -6 -90 -10 -36 -4 -76 -8 -90 -10 -30 -4 -103 -12
-185 -20 -33 -4 -76 -8 -95 -11 -20 -2 -60 -6 -90 -9 -30 -2 -80 -7 -110 -10
-131 -13 -209 -20 -340 -30 -36 -3 -85 -7 -110 -10 -41 -4 -106 -9 -275 -20
-32 -2 -95 -7 -140 -10 -388 -27 -734 -43 -1290 -62 -471 -15 -1786 -8 -2175
12 -47 3 -141 7 -210 10 -131 6 -164 8 -345 20 -222 14 -368 25 -410 31 -71
11 -284 12 -330 3 -97 -20 -162 -55 -200 -109 -25 -35 -30 -50 -29 -99 4 -208
305 -498 850 -819 67 -40 125 -72 130 -72 4 0 15 -6 23 -14 18 -16 353 -187
507 -259 214 -100 579 -227 849 -297 44 -11 103 -27 130 -35 59 -17 282 -72
316 -79 13 -2 42 -9 64 -15 57 -15 425 -93 590 -125 108 -21 469 -87 500 -91
22 -4 47 -8 55 -10 8 -2 33 -7 55 -10 23 -3 50 -7 60 -9 11 -2 38 -6 60 -10
22 -3 110 -17 195 -30 85 -14 178 -27 205 -31 28 -3 59 -8 70 -10 11 -2 43 -7
70 -10 64 -8 101 -13 215 -29 49 -7 445 -55 500 -61 77 -8 154 -16 180 -20 14
-2 59 -6 100 -10 41 -4 86 -8 100 -10 14 -2 54 -7 90 -9 117 -10 184 -16 238
-21 135 -13 163 -15 242 -20 47 -3 105 -7 130 -10 25 -2 92 -7 150 -10 58 -3
130 -8 160 -10 51 -4 194 -12 365 -20 381 -18 1025 -23 1380 -10 287 10 327
12 430 20 50 3 117 8 150 11 33 2 81 6 108 9 26 3 71 7 100 10 117 12 298 34
332 41 80 16 117 16 136 -1 19 -18 25 -51 11 -72 -22 -35 -895 -393 -1387
-568 -88 -31 -169 -61 -180 -66 -82 -36 -903 -302 -1370 -444 -133 -40 -615
-179 -710 -205 -16 -4 -131 -36 -255 -70 -124 -34 -232 -64 -240 -66 -14 -3
-149 -39 -290 -78 -30 -8 -149 -39 -265 -70 -463 -122 -689 -187 -721 -207
-94 -58 -147 -178 -122 -279 5 -19 10 -40 11 -45 7 -29 51 -84 94 -116 114
-86 361 -182 578 -224 126 -25 294 -50 394 -60 254 -26 388 -30 1001 -30 548
0 798 5 1065 20 39 3 117 7 175 10 58 4 128 8 155 10 28 2 93 6 145 9 52 4
115 9 140 11 25 2 79 7 120 10 41 3 93 8 115 10 22 3 70 7 105 10 61 5 120 11
200 20 19 2 64 7 100 10 36 4 76 8 90 10 14 2 54 7 90 10 36 4 67 8 70 10 3 2
41 6 84 9 44 4 82 8 85 10 3 2 33 7 66 10 33 4 85 11 115 16 30 5 73 11 95 14
22 3 112 16 200 30 88 14 178 28 200 31 376 57 948 176 1535 320 8 2 42 11 75
20 33 9 101 27 150 40 236 63 593 171 807 245 65 22 129 40 143 40 32 0 51
-40 34 -73 -43 -82 -501 -550 -778 -795 -14 -13 -37 -34 -51 -46 -14 -12 -72
-62 -130 -110 -58 -49 -116 -98 -130 -110 -61 -52 -388 -303 -525 -401 -169
-122 -456 -312 -649 -431 -253 -155 -316 -265 -207 -356 35 -30 123 -65 196
-79 28 -5 61 -11 75 -14 116 -23 512 -23 707 0 15 1 59 6 98 10 38 4 72 8 75
10 3 1 32 6 65 10 51 5 190 28 310 50 186 34 535 122 760 191 561 173 1030
377 1685 732 275 149 722 433 880 559 8 6 51 40 95 74 468 365 749 760 819
1151 20 111 15 328 -10 410 -3 10 -7 30 -10 45 -15 83 -129 348 -170 394 -8 8
-14 19 -14 23 0 6 -48 81 -72 111 -166 211 -178 225 -388 435 -192 191 -345
329 -505 456 -27 21 -52 41 -55 44 -9 9 -192 144 -280 207 -483 342 -1076 631
-1570 764 -84 23 -283 67 -335 74 -19 3 -52 8 -72 11 -115 17 -215 22 -363 19
-91 -1 -172 -5 -180 -9 -8 -3 -33 -8 -55 -10 -22 -3 -51 -8 -65 -11 -14 -3
-34 -7 -45 -9 -33 -5 -143 -45 -197 -71 -28 -14 -55 -22 -59 -19 -11 7 -4 222
10 289 62 306 195 544 429 767 338 323 828 531 1537 653 22 4 49 9 60 10 11 2
40 6 65 9 73 9 133 16 165 21 17 3 64 7 105 10 41 3 90 8 107 10 18 3 79 7
135 10 294 15 467 26 623 40 33 3 80 7 105 10 69 6 162 16 192 21 15 2 49 6
75 9 27 3 65 7 86 10 20 3 56 7 80 11 23 3 71 10 107 15 78 13 110 18 151 23
17 3 44 8 60 11 17 4 40 8 52 10 20 2 159 28 212 39 11 2 56 12 100 21 345 72
746 189 1035 302 173 67 442 203 563 284 196 131 339 287 389 424 16 45 21 83
21 150 0 100 -17 155 -80 252 -32 48 -133 158 -179 193 -10 8 -37 29 -59 46
-110 87 -323 201 -491 265 -92 35 -313 103 -367 113 -12 2 -62 13 -112 25 -49
11 -103 22 -120 25 -16 3 -39 8 -50 10 -11 2 -40 7 -65 11 -25 4 -54 9 -65 11
-10 2 -37 6 -60 9 -22 3 -51 8 -65 10 -54 10 -166 25 -225 30 -16 2 -50 6 -75
9 -50 6 -105 13 -195 21 -33 4 -77 8 -97 10 -20 2 -72 7 -115 10 -43 3 -105 7
-138 10 -33 3 -96 7 -140 10 -44 3 -114 7 -155 10 -376 25 -1119 49 -2135 70
-148 3 -355 8 -460 10 -104 3 -287 7 -405 10 -231 6 -455 12 -695 20 -413 14
-527 18 -770 30 -60 3 -157 8 -215 10 -58 3 -141 7 -185 10 -44 2 -129 7 -190
10 -60 3 -137 8 -170 11 -33 2 -100 7 -150 9 -49 3 -117 7 -150 10 -33 3 -94
7 -135 10 -41 3 -100 7 -130 10 -30 2 -91 7 -135 10 -44 4 -96 8 -115 10 -19
2 -73 6 -120 9 -47 4 -101 9 -120 11 -19 2 -64 7 -100 10 -36 3 -81 8 -100 10
-19 2 -64 7 -100 10 -36 3 -81 8 -100 10 -19 3 -62 7 -95 10 -33 3 -73 8 -90
10 -16 2 -57 7 -90 10 -33 4 -72 9 -87 11 -15 2 -47 6 -72 9 -51 5 -126 14
-176 20 -19 3 -52 7 -72 10 -21 3 -55 8 -75 11 -21 3 -54 7 -73 10 -89 11
-304 42 -350 49 -14 3 -59 9 -100 15 -41 6 -102 16 -135 21 -33 5 -76 12 -95
14 -30 5 -211 35 -305 51 -16 3 -41 7 -55 9 -21 3 -138 23 -355 61 -16 2 -77
13 -135 24 -58 11 -116 21 -130 24 -14 2 -36 7 -50 10 -14 3 -41 8 -61 10 -20
3 -42 8 -50 10 -8 3 -30 7 -49 10 -19 3 -71 12 -114 21 -44 8 -93 18 -110 21
-17 2 -38 7 -46 9 -8 2 -28 7 -45 9 -44 8 -428 84 -510 102 -38 8 -110 24
-160 34 -82 18 -590 127 -625 135 -8 2 -46 10 -85 19 -226 49 -928 216 -1149
272 -55 14 -107 27 -117 29 -10 2 -109 27 -221 55 -112 29 -211 54 -220 56
-38 9 -57 14 -188 48 -74 20 -202 54 -285 76 -226 59 -265 70 -321 86 -28 8
-60 17 -70 19 -33 8 -86 22 -219 60 -71 20 -161 45 -200 55 -38 11 -133 38
-210 60 -77 23 -147 42 -155 44 -25 6 -295 85 -490 143 -313 93 -373 111 -445
133 -38 12 -81 24 -95 27 -14 3 -29 9 -35 13 -5 4 -23 10 -40 14 -70 16 -861
271 -887 286 -10 6 -24 10 -32 10 -7 0 -35 9 -62 19 -27 11 -107 40 -179 66
-71 26 -171 63 -222 81 -51 18 -103 36 -115 38 -100 20 -130 24 -202 24 -44
-1 -98 -5 -119 -9z"/>
</g>
</svg>
